# xmcd
#
# Track frame offsets:
#	150
#	17510
#	40471
#	58164
#	88550
#	104762
#	127264
#	148700
#	170797
#	198766
#	219399
#	234291
#
# Disc length: 3317 seconds
#
# Revision: 1
# Processed by: cddbd v1.5.2PL0 Copyright (c) Steve Scherf et al.
# Submitted via: audiograbber 1.83.01
#
DISCID=af0cf30c
DTITLE=Mister Lucky - Get Lucky!
DYEAR=2000
DGENRE=Blues
TTITLE0=Get Lucky
TTITLE1=Too Many Empty Pockets
TTITLE2=9-1-1
TTITLE3=Midnight Moves
TTITLE4=Wonderful You
TTITLE5=Gold Diggin' Mama
TTITLE6=Yesterday's Blues
TTITLE7=Hubby Trouble
TTITLE8=Travellin' Bones
TTITLE9=Labour of Love
TTITLE10=What'd I Do, What'd I Say
TTITLE11=Two Kinds of Luck
EXTD=
EXTT0=
EXTT1=
EXTT2=
EXTT3=
EXTT4=
EXTT5=
EXTT6=
EXTT7=
EXTT8=
EXTT9=
EXTT10=
EXTT11=
PLAYORDER=
